<svg xmlns="http://www.w3.org/2000/svg" viewBox="0 0 1200 630">
<!--1. Background Environment-->
  <rect width="1200" height="630" fill="#1a1a1a"/>
<!--Grid Pattern-->
  <defs>
    <pattern id="grid" width="40" height="40" patternUnits="userSpaceOnUse">
      <path d="M 40 0 L 0 0 0 40" fill="none" stroke="#2a2a2a" stroke-width="2"/>
    </pattern>
<!--Isometric Tank Shape Definition-->
    <g id="tank-shape">
<!--Tracks-->
       <!-- Left Track (Behind) -->
       <path d="M-25,20 L15,0 L20,5 L-20,25 Z" fill="#333"/>
       <!-- Right Track (Front) -->
       <path d="M10,40 L50,20 L55,25 L15,45 Z" fill="#333"/>
       <!-- Front/Under Connectors -->
       <path d="M-20,25 L10,40 L15,45 L-15,30 Z" fill="#222"/>

<!--Hull-->
      <path d="M-15,25 L25,5 L45,15 L5,35 Z" fill="currentColor" opacity="0.8"/>
<!--Top-->
      <path d="M5,35 L45,15 L45,25 L5,45 Z" fill="currentColor" opacity="0.6"/>
<!--Side-->
      <path d="M-15,25 L5,35 L5,45 L-15,35 Z" fill="currentColor" opacity="0.4"/>
<!--Front-->
<!--Turret-->
      <path d="M-5,15 L15,5 L25,10 L5,20 Z" fill="currentColor"/>
<!--Top-->
      <path d="M5,20 L25,10 L25,18 L5,28 Z" fill="#000" opacity="0.2"/>
<!--Side-->
<!--Barrel-->
      <path d="M15,12 L50,-5" stroke="#222" stroke-width="6" stroke-linecap="round"/>
    </g>
<!--Explosion Shape-->
    <path id="boom" d="M0,-30 L10,-10 L30,-20 L20,0 L40,10 L15,15 L20,40 L0,20 L-20,40 L-15,15 L-40,10 L-20,0 L-30,-20 L-10,-10 Z" fill="#ffaa00" stroke="#ff5500" stroke-width="3"/>
  </defs>
  <rect width="1200" height="630" fill="url(#grid)"/>
<!--2. The Scene-->
<!--Player 1 (Green)-->
  <g transform="translate(300, 350) scale(3)">
    <use href="#tank-shape" color="#4ade80"/>
  </g>
<!--Player 2 / Ally (Blue)-->
  <g transform="translate(450, 430) scale(3)">
    <use href="#tank-shape" color="#4488ff"/>
  </g>
<!--Enemy (Red) - Flipped to face players-->
  <g transform="translate(900, 300) scale(-3, 3)">
    <use href="#tank-shape" color="#ef4444"/>
  </g>
<!--Enemy 2 (Red)-->
  <g transform="translate(800, 450) scale(-3, 3)">
    <use href="#tank-shape" color="#ef4444"/>
  </g>
<!--3. Action Elements-->
<!--Bullet P1 to Enemy-->
  <circle cx="500" cy="330" r="8" fill="#ffff00">
    <animate attributeName="opacity" values="1;0.5;1" dur="0.2s" repeatCount="indefinite"/>
  </circle>
  <line x1="420" y1="340" x2="490" y2="332" stroke="#ffff00" stroke-width="4" stroke-opacity="0.5"/>
<!--Explosion on Enemy-->
  <g transform="translate(880, 280) scale(1.5)">
    <use href="#boom"/>
  </g>
<!--4. Typography / Logo-->
  <g transform="translate(600, 150)" text-anchor="middle">
<!--Main Title Shadow-->
    <text y="5" font-family="Segoe UI, sans-serif" font-weight="900" font-size="90" fill="black" opacity="0.5" letter-spacing="4">BATTLE TANKS</text>
<!--Main Title-->
    <text y="0" font-family="Segoe UI, sans-serif" font-weight="900" font-size="90" fill="#fff" letter-spacing="4" stroke="#1a1a1a" stroke-width="2">BATTLE TANKS</text>
<!--3D Tag-->
    <text x="430" y="0" font-family="Segoe UI, sans-serif" font-weight="900" font-size="90" fill="#4ade80" font-style="italic">3D</text>
<!--Subtitle-->
    <rect x="-163" y="30" width="330" height="40" fill="#4488ff" rx="4"/>
    <text y="58" font-family="monospace" font-weight="bold" font-size="24" fill="#001133" letter-spacing="2">MULTIPLAYER EDITION</text>
  </g>
<!--Border Frame-->
  <rect x="20" y="20" width="1160" height="590" fill="none" stroke="#4ade80" stroke-width="8" rx="20" opacity="0.5"/>
</svg>