<svg xmlns="http://www.w3.org/2000/svg" width="1200" height="675" viewBox="0 0 1200 675">
  <defs>
    <linearGradient id="bg" x1="0" x2="1" y1="0" y2="1">
      <stop offset="0%" stop-color="#ffe6ba" />
      <stop offset="55%" stop-color="#f5b975" />
      <stop offset="100%" stop-color="#f59d8b" />
    </linearGradient>
    <linearGradient id="card" x1="0" x2="1" y1="0" y2="1">
      <stop offset="0%" stop-color="#fff" stop-opacity="0.9" />
      <stop offset="100%" stop-color="#f5f1ea" stop-opacity="0.9" />
    </linearGradient>
  </defs>
  <rect width="1200" height="675" fill="url(#bg)" />
  <circle cx="1020" cy="140" r="110" fill="#f04d3a" opacity="0.2" />
  <circle cx="160" cy="520" r="150" fill="#2b9ea3" opacity="0.18" />
  <g transform="translate(180 130)">
    <rect x="0" y="0" width="260" height="360" rx="22" fill="url(#card)" stroke="#f04d3a" stroke-width="4" />
    <rect x="18" y="18" width="224" height="224" rx="18" fill="#f6d48d" />
    <circle cx="190" cy="110" r="55" fill="#f04d3a" opacity="0.35" />
    <text x="26" y="85" font-family="Signika, sans-serif" font-size="52" font-weight="700" fill="#2b1f1f">#12</text>
    <text x="26" y="300" font-family="Signika, sans-serif" font-size="36" font-weight="700" fill="#2b1f1f">El Valiente</text>
  </g>
  <g transform="translate(520 200)">
    <rect x="0" y="0" width="230" height="320" rx="22" fill="url(#card)" stroke="#2b9ea3" stroke-width="4" />
    <rect x="16" y="16" width="198" height="198" rx="16" fill="#f9e4b5" />
    <circle cx="160" cy="100" r="50" fill="#2b9ea3" opacity="0.35" />
    <text x="24" y="80" font-family="Signika, sans-serif" font-size="46" font-weight="700" fill="#2b1f1f">#28</text>
    <text x="24" y="268" font-family="Signika, sans-serif" font-size="30" font-weight="700" fill="#2b1f1f">La Sandia</text>
  </g>
  <g transform="translate(820 160)">
    <rect x="0" y="0" width="230" height="320" rx="22" fill="url(#card)" stroke="#f04d3a" stroke-width="4" />
    <rect x="16" y="16" width="198" height="198" rx="16" fill="#f7c9a2" />
    <circle cx="160" cy="100" r="50" fill="#f04d3a" opacity="0.35" />
    <text x="24" y="80" font-family="Signika, sans-serif" font-size="46" font-weight="700" fill="#2b1f1f">#54</text>
    <text x="24" y="268" font-family="Signika, sans-serif" font-size="30" font-weight="700" fill="#2b1f1f">La Rana</text>
  </g>
  <text x="180" y="600" font-family="Yatra One, serif" font-size="64" fill="#2b1f1f">Loteria Caller</text>
  <text x="180" y="640" font-family="Signika, sans-serif" font-size="24" fill="#2b1f1f" opacity="0.7">Spanish + English calls with a 54-card placemat</text>
</svg>
